<?xml version="1.0" encoding="UTF-8"?>
<svg width="138px" height="17px" viewBox="0 0 138 17" version="1.1" xmlns="http://www.w3.org/2000/svg" xmlns:xlink="http://www.w3.org/1999/xlink">
    <!-- Generator: Sketch 52 (66869) - http://www.bohemiancoding.com/sketch -->
    <title>horoshop</title>
    <desc>Created with Sketch.</desc>
    <g id="my" stroke="none" stroke-width="1" fill="none" fill-rule="evenodd">
        <g id="horoshop" transform="translate(-1.000000, 0.000000)" fill="#000000" fill-rule="nonzero">
            <path d="M6.12,15.47 C5.91895661,15.7821094 5.5806688,15.9791342 5.21,16 L1.36,16 C1,16 0.9,15.77 1.09,15.49 L6,8.1 C6.17863279,7.79059892 6.17863279,7.40940108 6,7.1 L1.63,0.51 C1.44,0.23 1.57,-8.8817842e-16 1.9,-8.8817842e-16 L6,-8.8817842e-16 C6.36845571,0.0193462207 6.70267171,0.222128958 6.89,0.54 L8.47,3.54 C8.62,3.84 8.88,3.84 9.03,3.54 L10.6,0.54 C10.7873283,0.222128958 11.1215443,0.0193462207 11.49,-7.66043045e-16 L15.3,-7.66043045e-16 C15.63,-7.66043045e-16 15.76,0.23 15.58,0.51 L11.49,6.85 C11.3113672,7.15940108 11.3113672,7.54059892 11.49,7.85 L16.37,15.47 C16.55,15.75 16.42,15.98 16.09,15.98 L12.09,15.98 C11.7209454,15.9625931 11.3842185,15.7642983 11.19,15.45 L9,11.44 C8.84,11.14 8.58,11.14 8.41,11.44 L6.09,15.44 L6.12,15.47 Z M40.32,0.61 C40.32,0.273106303 40.5931063,-4.4398079e-17 40.93,-1.06306023e-16 L46.93,-1.06306023e-16 C48.224177,-0.0142884997 49.491446,0.369732405 50.56,1.1 C51.304714,1.74704051 51.8609477,2.58311849 52.17,3.52 C52.2695994,3.83000455 52.3431875,4.14777113 52.39,4.47 C52.4300569,4.76162057 52.4501037,5.05564121 52.45,5.35 C52.4500725,5.64435773 52.4300258,5.93837624 52.39,6.23 C52.3436046,6.5523072 52.2700085,6.87010848 52.17,7.18 C51.8725636,8.12564196 51.318707,8.97027322 50.57,9.62 C49.539102,10.4339605 48.2396714,10.8302154 46.93,10.73 L45.38,10.73 C45.0431063,10.73 44.77,11.0031063 44.77,11.34 L44.77,15.41 C44.77,15.7468937 44.4968937,16.02 44.16,16.02 L40.93,16.02 C40.5931063,16.02 40.32,15.7468937 40.32,15.41 L40.32,0.61 Z M44.78,6.61 C44.7509197,6.91612451 44.9741221,7.18843143 45.28,7.22 C45.55,7.22 46.05,7.22 46.38,7.16 C46.6496835,7.13168582 46.9094849,7.04280642 47.14,6.9 C47.3929237,6.72751019 47.5935663,6.48881469 47.72,6.21 C47.7749296,6.05474106 47.8118383,5.89368491 47.83,5.73 C47.8360543,5.61007636 47.8360543,5.48992364 47.83,5.37 C47.83,5.28 47.83,5.19 47.83,5.1 C47.83,5.01 47.83,4.92 47.83,4.82 C47.744365,4.47828864 47.5558704,4.17111235 47.29,3.94 C46.8578984,3.63118418 46.3286673,3.48910873 45.8,3.54 L45.41,3.54 C45.2482179,3.54 45.0930621,3.60426767 44.9786649,3.71866486 C44.8642677,3.83306205 44.8,3.98821794 44.8,4.15 L44.8,6.59 L44.78,6.61 Z M78.25,0.6 C78.2553527,0.270871821 78.5208718,0.00535273356 78.85,-2.6931582e-16 L82.05,-2.6931582e-16 C82.3813708,9.17132039e-15 82.65,0.26862915 82.65,0.6 L82.65,11.55 C82.6553527,11.8791282 82.9208718,12.1446473 83.25,12.15 L85.43,12.15 C85.7613708,12.15 86.03,11.8813708 86.03,11.55 L86.03,0.6 C86.0354595,0.267017969 86.3069732,-4.47525927e-05 86.64,-1.33844758e-16 L89.84,-1.33844758e-16 C90.1713708,-1.13570178e-16 90.44,0.26862915 90.44,0.6 L90.44,11.55 C90.4453527,11.8791282 90.7108718,12.1446473 91.04,12.15 L93.22,12.15 C93.5513708,12.15 93.82,11.8813708 93.82,11.55 L93.82,0.6 C93.8254595,0.267017969 94.0969732,-4.47525927e-05 94.43,-1.33844758e-16 L97.63,-1.33844758e-16 C97.7908554,-0.00268129751 97.9460494,0.0593471312 98.0607434,0.172160885 C98.1754374,0.284974639 98.2400223,0.439122244 98.24,0.6 L98.24,15.39 C98.2400448,15.7230268 97.972982,15.9945405 97.64,16 L78.86,16 C78.5286292,16 78.26,15.7313708 78.26,15.4 L78.25,0.6 Z M105.08,13.6 C103.713986,12.0571913 102.972342,10.0604584 103,8 C102.963075,5.95518503 103.674306,3.96729451 105,2.41 C106.333333,0.803333333 108.366667,7.10542736e-15 111.1,7.10542736e-15 L111.32,7.10542736e-15 C113.986667,7.10542736e-15 116.02,0.803333333 117.42,2.41 C118.745694,3.96729451 119.456925,5.95518503 119.42,8 C119.463821,10.0429221 118.751587,12.0300555 117.42,13.58 C116.086667,15.1666667 114.053333,15.9666667 111.32,15.98 L111.1,15.98 C108.821837,16.1322144 106.596189,15.2507696 105.04,13.58 L105.08,13.6 Z M111.68,12.34 C111.844152,12.3189625 112.00526,12.2786857 112.16,12.22 C112.901031,12.0123671 113.562833,11.5874209 114.06,11 C114.70359,10.1386686 115.009515,9.07148821 114.92,8 C114.995318,6.92058745 114.6675,5.85161527 114,5 C113.510041,4.40518246 112.856404,3.96710659 112.12,3.74 L111.65,3.63 C111.503676,3.61581486 111.356324,3.61581486 111.21,3.63 C111.043624,3.61608691 110.876376,3.61608691 110.71,3.63 C110.539842,3.65857748 110.372529,3.70207872 110.21,3.76 C109.487824,4.00346601 108.852017,4.45165769 108.38,5.05 C107.772912,5.90747849 107.492688,6.95388551 107.59,8 C107.513921,9.03762261 107.807991,10.0686362 108.42,10.91 C108.891616,11.5087661 109.52756,11.9570548 110.25,12.2 C110.409147,12.2578028 110.573129,12.3013082 110.74,12.33 C110.903045,12.3437285 111.066955,12.3437285 111.23,12.33 L111.69,12.33 L111.68,12.34 Z M124.25,0.61 C124.255355,0.275349694 124.52535,0.00535542783 124.86,-8.8817842e-16 L137.63,-8.8817842e-16 C137.96465,0.00535542783 138.234645,0.275349694 138.24,0.61 L138.24,15.39 C138.234645,15.7246503 137.96465,15.9946446 137.63,16 L134.31,16 C133.971451,16.000044 133.69546,15.728505 133.69,15.39 L133.69,4.45 C133.69,4.1131063 133.416894,3.84 133.08,3.84 L129.4,3.84 C129.06535,3.84535543 128.795355,4.11534969 128.79,4.45 L128.79,15.39 C128.79,15.73 128.74,16 128.68,16 L124.86,16 C124.52535,15.9946446 124.255355,15.7246503 124.25,15.39 L124.25,0.61 Z M59.08,13.61 C57.7116478,12.0646292 56.9698414,10.0638917 57,8 C56.9630747,5.95518503 57.6743056,3.96729451 59,2.41 C60.3933333,0.803333333 62.44,0 65.14,0 L65.36,0 C68.0266667,0 70.06,0.803333333 71.46,2.41 C72.8001389,3.96150511 73.5258174,5.95000637 73.5,8 C73.5438208,10.0429221 72.8315866,12.0300555 71.5,13.58 C70.1666667,15.1666667 68.1333333,15.9666667 65.4,15.98 L65.18,15.98 C62.901837,16.1322144 60.6761891,15.2507696 59.12,13.58 L59.08,13.61 Z M65.68,12.35 C65.8441524,12.3289625 66.0052597,12.2886857 66.16,12.23 C66.9022677,12.0196318 67.5642123,11.5911097 68.06,11 C68.70359,10.1386686 69.0095151,9.07148821 68.92,8 C68.9953177,6.92058745 68.6674995,5.85161527 68,5 C67.5100408,4.40518246 66.8564038,3.96710659 66.12,3.74 L65.65,3.63 C65.5036763,3.61581486 65.3563237,3.61581486 65.21,3.63 C65.0436237,3.61608691 64.8763763,3.61608691 64.71,3.63 C64.5398415,3.65857748 64.3725291,3.70207872 64.21,3.76 C63.487824,4.00346601 62.8520172,4.45165769 62.38,5.05 C61.772912,5.90747849 61.4926878,6.95388551 61.59,8 C61.5139214,9.03762261 61.8079906,10.0686362 62.42,10.91 C62.8916155,11.5087661 63.5275599,11.9570548 64.25,12.2 C64.4091474,12.2578028 64.5731293,12.3013082 64.74,12.33 C64.9030449,12.3437285 65.0669551,12.3437285 65.23,12.33 L65.69,12.33 L65.68,12.35 Z M21.08,13.6 C19.7139857,12.0571913 18.972342,10.0604584 19,8 C18.9630747,5.95518503 19.6743056,3.96729451 21,2.41 C22.3933333,0.803333333 24.44,0 27.14,0 L27.36,0 C30.06,0 32.0933333,0.803333333 33.46,2.41 C34.8001389,3.96150511 35.5258174,5.95000637 35.5,8 C35.5438208,10.0429221 34.8315866,12.0300555 33.5,13.58 C32.1666667,15.1666667 30.1333333,15.9666667 27.4,15.98 L27.18,15.98 C24.901837,16.1322144 22.6761891,15.2507696 21.12,13.58 L21.08,13.6 Z M27.68,12.34 C27.8441524,12.3189625 28.0052597,12.2786857 28.16,12.22 C28.9010312,12.0123671 29.5628327,11.5874209 30.06,11 C30.7000423,10.1372861 31.0023743,9.07023189 30.91,8 C30.9881453,6.92186903 30.6639321,5.85303418 30,5 C29.5100408,4.40518246 28.8564038,3.96710659 28.12,3.74 L27.65,3.63 C27.5036763,3.61581486 27.3563237,3.61581486 27.21,3.63 C27.0436237,3.61608691 26.8763763,3.61608691 26.71,3.63 C26.5398307,3.65852664 26.3725138,3.70202903 26.21,3.76 C25.487824,4.00346601 24.8520172,4.45165769 24.38,5.05 C23.772912,5.90747849 23.4926878,6.95388551 23.59,8 C23.5139214,9.03762261 23.8079906,10.0686362 24.42,10.91 C24.8916155,11.5087661 25.5275599,11.9570548 26.25,12.2 C26.4091474,12.2578028 26.5731293,12.3013082 26.74,12.33 C26.9030449,12.3437285 27.0669551,12.3437285 27.23,12.33 L27.69,12.33 L27.68,12.34 Z" id="Shape"></path>
        </g>
    </g>
</svg>